<svg xmlns="http://www.w3.org/2000/svg" viewBox="0 0 577.74 577.74"><defs><style>.cls-1{fill:#273040;}.cls-2{fill:#00dcff;}</style></defs><title>Asset 1+logotype</title><g id="Layer_2" data-name="Layer 2"><g id="Layer_1-2" data-name="Layer 1"><path class="cls-1" d="M288.87,572.74A283.88,283.88,0,0,1,88.14,88.14,283.88,283.88,0,0,1,489.6,489.6,282.06,282.06,0,0,1,288.87,572.74Z"/><path class="cls-2" d="M288.87,10A278.95,278.95,0,0,1,397.42,545.83,278.95,278.95,0,0,1,180.32,31.91,277.14,277.14,0,0,1,288.87,10m0-10C129.33,0,0,129.33,0,288.87S129.33,577.74,288.87,577.74,577.74,448.41,577.74,288.87,448.41,0,288.87,0Z"/><path class="cls-2" d="M532.91,370.34,320.84,192.39a10.33,10.33,0,0,0-6.76-2.42H57a10.08,10.08,0,0,0-10,10v39.56a10.07,10.07,0,0,0,10,10h239.2L494.57,416a10.45,10.45,0,0,0,14.69-1.29L534.2,385A10.47,10.47,0,0,0,532.91,370.34Z"/><path class="cls-2" d="M203,322.72l0,88.92c0,5.53-4.14,9.24-9.67,9.24H153.09c-5.52,0-9.68-3.9-9.68-9.43V286.74a9.18,9.18,0,0,1,4.93-7.59,8.86,8.86,0,0,1,9.37.72l41.19,34.52C202,316.77,203,318.93,203,322.72Z"/><path class="cls-2" d="M353,322.72l0,88.92c0,5.53-4.14,9.24-9.67,9.24H303.09c-5.52,0-9.68-3.9-9.68-9.43V286.74a9.18,9.18,0,0,1,4.93-7.59,8.86,8.86,0,0,1,9.37.72l41.19,34.52C352,316.77,353,318.93,353,322.72Z"/><path class="cls-2" d="M442.78,275.27l0-75.62c0-5.52,4.14-9.24,9.67-9.24h40.19c5.52,0,9.67,3.91,9.67,9.43V311.25a9.22,9.22,0,0,1-4.92,7.6,8.9,8.9,0,0,1-9.38-.73L446.85,283.6C443.78,281.22,442.78,279.06,442.78,275.27Z"/></g></g></svg>